<svg width="20" height="20" viewBox="0 0 20 20" fill="none" xmlns="http://www.w3.org/2000/svg">
<rect width="20" height="20" fill="#2E2E2E"/>
<g id="edit here">
<rect width="1667" height="1667" transform="translate(-960 -509)" fill="#C0FFB6"/>
<g id="Frame 6" filter="url(#filter0_ddddd_0_1)">
<g id="iPhone 11 Frame" clip-path="url(#clip0_0_1)">
<rect width="375" height="812" transform="translate(-314 -81)" fill="#F7F7F7"/>
<g id="ep:more-filled">
<path id="Vector" d="M3.4375 8.125C3.72477 8.125 4.00922 8.18158 4.27462 8.29151C4.54002 8.40145 4.78117 8.56258 4.9843 8.7657C5.18742 8.96883 5.34855 9.20998 5.45849 9.47538C5.56842 9.74078 5.625 10.0252 5.625 10.3125C5.625 10.5998 5.56842 10.8842 5.45849 11.1496C5.34855 11.415 5.18742 11.6562 4.9843 11.8593C4.78117 12.0624 4.54002 12.2236 4.27462 12.3335C4.00922 12.4434 3.72477 12.5 3.4375 12.5C2.85734 12.5 2.30094 12.2695 1.8907 11.8593C1.48047 11.4491 1.25 10.8927 1.25 10.3125C1.25 9.73234 1.48047 9.17594 1.8907 8.7657C2.30094 8.35547 2.85734 8.125 3.4375 8.125ZM10 8.125C10.2873 8.125 10.5717 8.18158 10.8371 8.29151C11.1025 8.40145 11.3437 8.56258 11.5468 8.7657C11.7499 8.96883 11.9111 9.20998 12.021 9.47538C12.1309 9.74078 12.1875 10.0252 12.1875 10.3125C12.1875 10.5998 12.1309 10.8842 12.021 11.1496C11.9111 11.415 11.7499 11.6562 11.5468 11.8593C11.3437 12.0624 11.1025 12.2236 10.8371 12.3335C10.5717 12.4434 10.2873 12.5 10 12.5C9.41984 12.5 8.86344 12.2695 8.4532 11.8593C8.04297 11.4491 7.8125 10.8927 7.8125 10.3125C7.8125 9.73234 8.04297 9.17594 8.4532 8.7657C8.86344 8.35547 9.41984 8.125 10 8.125ZM16.5625 8.125C16.8498 8.125 17.1342 8.18158 17.3996 8.29151C17.665 8.40145 17.9062 8.56258 18.1093 8.7657C18.3124 8.96883 18.4736 9.20998 18.5835 9.47538C18.6934 9.74078 18.75 10.0252 18.75 10.3125C18.75 10.5998 18.6934 10.8842 18.5835 11.1496C18.4736 11.415 18.3124 11.6562 18.1093 11.8593C17.9062 12.0624 17.665 12.2236 17.3996 12.3335C17.1342 12.4434 16.8498 12.5 16.5625 12.5C15.9823 12.5 15.4259 12.2695 15.0157 11.8593C14.6055 11.4491 14.375 10.8927 14.375 10.3125C14.375 9.73234 14.6055 9.17594 15.0157 8.7657C15.4259 8.35547 15.9823 8.125 16.5625 8.125Z" fill="black"/>
</g>
</g>
</g>
</g>
<g id="instructions">
</g>
<defs>
<filter id="filter0_ddddd_0_1" x="-542" y="-109" width="831" height="1263" filterUnits="userSpaceOnUse" color-interpolation-filters="sRGB">
<feFlood flood-opacity="0" result="BackgroundImageFix"/>
<feColorMatrix in="SourceAlpha" type="matrix" values="0 0 0 0 0 0 0 0 0 0 0 0 0 0 0 0 0 0 127 0" result="hardAlpha"/>
<feOffset dy="6.80109"/>
<feGaussianBlur stdDeviation="3.52076"/>
<feColorMatrix type="matrix" values="0 0 0 0 0 0 0 0 0 0 0 0 0 0 0 0 0 0 0.09 0"/>
<feBlend mode="normal" in2="BackgroundImageFix" result="effect1_dropShadow_0_1"/>
<feColorMatrix in="SourceAlpha" type="matrix" values="0 0 0 0 0 0 0 0 0 0 0 0 0 0 0 0 0 0 127 0" result="hardAlpha"/>
<feOffset dy="17.2005"/>
<feGaussianBlur stdDeviation="8.90428"/>
<feColorMatrix type="matrix" values="0 0 0 0 0 0 0 0 0 0 0 0 0 0 0 0 0 0 0.0620983 0"/>
<feBlend mode="normal" in2="effect1_dropShadow_0_1" result="effect2_dropShadow_0_1"/>
<feColorMatrix in="SourceAlpha" type="matrix" values="0 0 0 0 0 0 0 0 0 0 0 0 0 0 0 0 0 0 127 0" result="hardAlpha"/>
<feOffset dy="35.0873"/>
<feGaussianBlur stdDeviation="18.1639"/>
<feColorMatrix type="matrix" values="0 0 0 0 0 0 0 0 0 0 0 0 0 0 0 0 0 0 0.0500662 0"/>
<feBlend mode="normal" in2="effect2_dropShadow_0_1" result="effect3_dropShadow_0_1"/>
<feColorMatrix in="SourceAlpha" type="matrix" values="0 0 0 0 0 0 0 0 0 0 0 0 0 0 0 0 0 0 127 0" result="hardAlpha"/>
<feOffset dy="72.2733"/>
<feGaussianBlur stdDeviation="37.4142"/>
<feColorMatrix type="matrix" values="0 0 0 0 0 0 0 0 0 0 0 0 0 0 0 0 0 0 0.0399338 0"/>
<feBlend mode="normal" in2="effect3_dropShadow_0_1" result="effect4_dropShadow_0_1"/>
<feColorMatrix in="SourceAlpha" type="matrix" values="0 0 0 0 0 0 0 0 0 0 0 0 0 0 0 0 0 0 127 0" result="hardAlpha"/>
<feOffset dy="198"/>
<feGaussianBlur stdDeviation="102.5"/>
<feColorMatrix type="matrix" values="0 0 0 0 0 0 0 0 0 0 0 0 0 0 0 0 0 0 0.0279017 0"/>
<feBlend mode="normal" in2="effect4_dropShadow_0_1" result="effect5_dropShadow_0_1"/>
<feBlend mode="normal" in="SourceGraphic" in2="effect5_dropShadow_0_1" result="shape"/>
</filter>
<clipPath id="clip0_0_1">
<rect width="375" height="812" fill="white" transform="translate(-314 -81)"/>
</clipPath>
</defs>
</svg>
